<?xml version="1.0" encoding="UTF-8"?><svg id="Layer_2" xmlns="http://www.w3.org/2000/svg" width="249.24mm" height="28.84mm" viewBox="0 0 706.5 81.76"><defs><style>.cls-1{fill:blue;}</style></defs><polygon class="cls-1" points="25.09 14.79 11.43 79.97 29.12 79.97 42.78 14.79 66.75 14.79 69.89 0 3.14 0 0 14.79 25.09 14.79"/><polygon class="cls-1" points="329.73 0 313.04 79.97 369.26 79.97 372.4 65.18 333.76 65.18 347.43 0 329.73 0"/><polygon class="cls-1" points="425.15 0 408.47 79.97 470.07 79.97 473.2 65.18 429.07 65.18 433.22 45.59 473.43 45.59 476.34 31.92 436.13 31.92 439.71 14.79 483.17 14.79 486.19 0 425.15 0"/><path class="cls-1" d="m696.75,46.48c3.25-15.49,6.49-30.99,9.74-46.48h-17.58c-3.32,15.79-6.65,31.59-9.97,47.38-.67,2.98-1.4,5.71-2.18,8.18-.78,2.46-1.87,4.54-3.25,6.21-1.38,1.68-3.19,2.99-5.43,3.92-2.24.93-5.15,1.4-8.73,1.4-3.06,0-5.56-.37-7.5-1.12s-3.47-1.66-4.59-2.74c-1.12-1.08-1.88-2.26-2.3-3.53-.41-1.27-.61-2.39-.61-3.36,0-.67.06-1.44.17-2.3.11-.86.26-1.77.45-2.74.19-.97.37-1.88.56-2.74.19-.86.35-1.62.5-2.3,3.25-15.42,6.5-30.84,9.74-46.26h-17.58c-3.25,15.42-6.49,30.84-9.74,46.26-.37,1.94-.74,3.9-1.12,5.88-.37,1.98-.56,3.97-.56,5.99,0,4.41.91,8.12,2.74,11.14,1.83,3.02,4.22,5.45,7.17,7.28,2.95,1.83,6.31,3.15,10.08,3.97,3.77.82,7.6,1.23,11.48,1.23,6.2,0,11.46-.76,15.79-2.3,4.33-1.53,7.99-3.77,10.98-6.72s5.39-6.63,7.22-11.03c1.83-4.4,3.34-9.48,4.54-15.23Z"/><path class="cls-1" d="m571.31,0h-18.03l-47.15,79.97h18.48l10.08-17.81h29.9l2.58,17.81h17.47L571.31,0Zm-29.68,49.06l17.25-31.81h.22l3.92,31.81h-21.39Z"/><path class="cls-1" d="m150.19,0h-18.03l-47.15,79.97h18.48l10.08-17.81h29.9l2.58,17.81h17.47L150.19,0Zm-29.68,49.06l17.25-31.81h.23l3.92,31.81h-21.39Z"/><path class="cls-1" d="m268.63,35.17c1.83-1.12,3.4-2.52,4.7-4.2,1.31-1.68,2.3-3.59,2.97-5.71.67-2.13,1.01-4.31,1.01-6.55,0-3.81-.6-6.93-1.79-9.35-1.2-2.43-2.91-4.33-5.15-5.71-2.24-1.38-4.97-2.34-8.18-2.86-3.21-.52-6.83-.78-10.86-.78h-33.6c-5.56,26.66-11.13,53.31-16.69,79.97h42.56c4.03,0,7.88-.56,11.54-1.68,3.66-1.12,6.91-2.76,9.74-4.93,2.84-2.16,5.09-4.89,6.78-8.18,1.68-3.28,2.52-7.09,2.52-11.42,0-3.88-1.03-7.3-3.08-10.25-2.05-2.95-4.98-4.95-8.79-5.99v-.22c2.39-.3,4.5-1.01,6.33-2.13Zm-15.91,27.89c-2.58,2.16-5.88,3.25-9.91,3.25h-22.06c1.57-7.32,3.13-14.63,4.7-21.95h17.25c1.57,0,3.17.07,4.82.22,1.64.15,3.14.54,4.48,1.18,1.35.63,2.45,1.55,3.31,2.74.86,1.19,1.29,2.84,1.29,4.93,0,4.25-1.29,7.46-3.86,9.63Zm3.47-33.32c-2.35,1.75-5.13,2.63-8.34,2.63h-19.93c1.31-6.23,2.61-12.47,3.92-18.7h18.59c2.84,0,5.09.58,6.78,1.73,1.68,1.16,2.52,3.3,2.52,6.44,0,3.51-1.18,6.14-3.53,7.9Z"/></svg>